<svg width="1024" height="1024" viewBox="0 0 1024 1024" fill="none" xmlns="http://www.w3.org/2000/svg">
    <!-- Skala Kecil Khusus Splash (0.75) -->
    <g transform="translate(512, 512)">
        <g transform="scale(0.75) translate(-315, -308)">
            <path d="M274 179.5H226.5C183 183.5 168 205 168 205C168 205 145 230 165.5 252.695C174.131 257.626 184.258 260.348 195.5 261L274 179.5Z" fill="url(#paint0_linear_4_63)"/>
            <path fill-rule="evenodd" clip-rule="evenodd" d="M149.375 413.586L335.814 220.155C350.505 204.913 339.703 179.5 318.534 179.5H274H226.5C183 183.5 168 205 168 205C168 205 145 230 165.5 252.695C148.113 242.762 136.794 223.867 134.654 194.877C134.537 193.298 134.576 191.698 134.766 190.126C140.476 142.973 169.944 112.418 226.5 107.5L372.184 106.335C434.235 105.838 466.271 180.338 423.215 225.024C363.169 287.343 290.73 362.648 234 422C225.388 430.396 215.85 441.944 207.779 452.373C195.311 468.485 187.494 492.512 202.579 506.206C202.88 506.479 203.187 506.744 203.5 507H190.933C142.057 507.571 115.455 448.778 149.375 413.586Z" fill="url(#paint1_radial_4_63)"/>
            <path d="M355.5 422H234C225.388 430.396 215.85 441.944 207.779 452.373C195.311 468.485 187.494 492.512 202.579 506.206C202.88 506.479 203.187 506.744 203.5 507H245.975C281.997 507 315.402 488.182 334.068 457.374L355.5 422Z" fill="#353C3A"/>
            <path d="M326.016 514.5H351.966C373.479 514.5 393.504 503.523 405.076 485.388L538.75 275.893C538.914 275.634 539.018 275.344 539.047 275.039C539.158 273.865 539.402 270.803 539 270C538.5 269 536.341 266 532 266H423.231C418.818 266 414 266 409.5 268.5C405 271 396.836 279 396.836 279L356.308 320.604C355.073 321.872 355.971 324 357.74 324H434.328C435.912 324 436.867 325.754 436.008 327.085L320.975 505.245C318.398 509.238 321.264 514.5 326.016 514.5Z" fill="url(#paint3_linear_4_63)"/>
        </g>
    </g>
    <defs>
        <linearGradient id="paint0_linear_4_63" x1="297" y1="105" x2="297" y2="511.5" gradientUnits="userSpaceOnUse">
            <stop offset="0.221154" stop-color="#353C3A"/>
            <stop offset="0.524038" stop-color="#82B3A5"/>
        </linearGradient>
        <radialGradient id="paint1_radial_4_63" cx="0" cy="0" r="1" gradientUnits="userSpaceOnUse" gradientTransform="translate(297 308.25) rotate(90) scale(203.25 242)">
            <stop stop-color="#3A514C"/>
            <stop offset="0.485577" stop-color="#3C4B47"/>
            <stop offset="1" stop-color="#4C6961"/>
        </radialGradient>
        <linearGradient id="paint3_linear_4_63" x1="539" y1="271" x2="337" y2="467.5" gradientUnits="userSpaceOnUse">
            <stop stop-color="#DFAE7A"/>
            <stop offset="1" stop-color="#AE7951"/>
        </linearGradient>
    </defs>
</svg>
